<?xml version="1.0" encoding="UTF-8" standalone="no"?>
<!DOCTYPE svg PUBLIC "-//W3C//DTD SVG 1.1//EN"
 "http://www.w3.org/Graphics/SVG/1.1/DTD/svg11.dtd">
<!-- Generated by graphviz version 14.0.5 (20251129.0259)
 -->
<!-- Title: FSM Pages: 1 -->
<svg width="6677pt" height="483pt"
 viewBox="0.00 0.00 6677.00 483.00" xmlns="http://www.w3.org/2000/svg" xmlns:xlink="http://www.w3.org/1999/xlink">
<g id="graph0" class="graph" transform="scale(1 1) rotate(0) translate(4 479.07)">
<title>FSM</title>
<polygon fill="white" stroke="none" points="-4,4 -4,-479.07 6673.36,-479.07 6673.36,4 -4,4"/>
<!-- start -->
<g id="node1" class="node">
<title>start</title>
<ellipse fill="black" stroke="black" cx="1.8" cy="-206" rx="1.8" ry="1.8"/>
</g>
<!-- q0 -->
<g id="node2" class="node">
<title>q0</title>
<ellipse fill="none" stroke="black" cx="67.6" cy="-206" rx="27" ry="18"/>
<text xml:space="preserve" text-anchor="middle" x="67.6" y="-200.95" font-family="Times New Roman,serif" font-size="14.00">q0</text>
</g>
<!-- start&#45;&gt;q0 -->
<g id="edge1" class="edge">
<title>start&#45;&gt;q0</title>
<path fill="none" stroke="black" d="M3.91,-206C7.21,-206 17.46,-206 28.73,-206"/>
<polygon fill="black" stroke="black" points="28.62,-209.5 38.62,-206 28.62,-202.5 28.62,-209.5"/>
</g>
<!-- q1 -->
<g id="node3" class="node">
<title>q1</title>
<ellipse fill="none" stroke="black" cx="3839.35" cy="-422" rx="20.13" ry="20.13"/>
<ellipse fill="none" stroke="black" cx="3839.35" cy="-422" rx="24.13" ry="24.13"/>
<text xml:space="preserve" text-anchor="middle" x="3839.35" y="-416.95" font-family="Times New Roman,serif" font-size="14.00">q1</text>
</g>
<!-- q0&#45;&gt;q1 -->
<g id="edge6" class="edge">
<title>q0&#45;&gt;q1</title>
<path fill="none" stroke="black" d="M67.93,-224.48C67.89,-256.42 72.99,-321.42 112.6,-352 289.63,-488.67 894.77,-383.53 1118.35,-389 2218.76,-415.91 3570.14,-421.17 3803.31,-421.9"/>
<polygon fill="black" stroke="black" points="3803.22,-425.4 3813.23,-421.93 3803.24,-418.4 3803.22,-425.4"/>
<text xml:space="preserve" text-anchor="middle" x="606.48" y="-425.69" font-family="Times New Roman,serif" font-size="14.00">&#39;:&#39;</text>
</g>
<!-- q6 -->
<g id="node4" class="node">
<title>q6</title>
<ellipse fill="none" stroke="black" cx="3839.35" cy="-321" rx="20.13" ry="20.13"/>
<ellipse fill="none" stroke="black" cx="3839.35" cy="-321" rx="24.13" ry="24.13"/>
<text xml:space="preserve" text-anchor="middle" x="3839.35" y="-315.95" font-family="Times New Roman,serif" font-size="14.00">q6</text>
</g>
<!-- q0&#45;&gt;q6 -->
<g id="edge4" class="edge">
<title>q0&#45;&gt;q6</title>
<path fill="none" stroke="black" d="M74.19,-223.73C80.54,-240.54 92.69,-264.84 112.6,-276 282.6,-371.28 3434.78,-327.04 3803.28,-321.54"/>
<polygon fill="black" stroke="black" points="3803.29,-325.04 3813.24,-321.39 3803.19,-318.04 3803.29,-325.04"/>
<text xml:space="preserve" text-anchor="middle" x="606.48" y="-335" font-family="Times New Roman,serif" font-size="14.00">&#39;0&#39;,&#39;1&#39;,&#39;2&#39;,&#39;3&#39;,&#39;4&#39;,&#39;5&#39;,&#39;6&#39;,&#39;7&#39;,&#39;8&#39;,&#39;9&#39;,&#39;A&#39;,&#39;B&#39;,&#39;C&#39;,&#39;D&#39;,&#39;E&#39;,&#39;F&#39;,&#39;G&#39;,&#39;H&#39;,&#39;I&#39;,&#39;J&#39;,&#39;K&#39;,&#39;L&#39;,&#39;M&#39;,&#39;N&#39;,&#39;O&#39;,&#39;P&#39;,&#39;Q&#39;,&#39;R&#39;,&#39;S&#39;,&#39;T&#39;,&#39;U&#39;,&#39;V&#39;,&#39;W&#39;,&#39;X&#39;,&#39;Y&#39;,&#39;Z&#39;,&#39;_&#39;,&#39;a&#39;,&#39;b&#39;,&#39;c&#39;,&#39;d&#39;,&#39;e&#39;,&#39;f&#39;,&#39;g&#39;,&#39;h&#39;,&#39;i&#39;,&#39;j&#39;,&#39;k&#39;,&#39;l&#39;,&#39;m&#39;,&#39;n&#39;,&#39;o&#39;,&#39;p&#39;,&#39;q&#39;,&#39;r&#39;,&#39;s&#39;,&#39;t&#39;,&#39;u&#39;,&#39;v&#39;,&#39;w&#39;,&#39;x&#39;,&#39;y&#39;,&#39;z&#39;</text>
</g>
<!-- q7 -->
<g id="node5" class="node">
<title>q7</title>
<ellipse fill="none" stroke="black" cx="6645.23" cy="-181" rx="20.13" ry="20.13"/>
<ellipse fill="none" stroke="black" cx="6645.23" cy="-181" rx="24.13" ry="24.13"/>
<text xml:space="preserve" text-anchor="middle" x="6645.23" y="-175.95" font-family="Times New Roman,serif" font-size="14.00">q7</text>
</g>
<!-- q0&#45;&gt;q7 -->
<g id="edge2" class="edge">
<title>q0&#45;&gt;q7</title>
<path fill="none" stroke="black" d="M88.52,-217.77C95.83,-221.48 104.35,-225.1 112.6,-227 548.18,-327.44 671.34,-233.22 1118.35,-235 1269.52,-235.6 6415.32,-277.65 6560.35,-235 6581.27,-228.85 6601.89,-215.69 6617.46,-203.91"/>
<polygon fill="black" stroke="black" points="6619.58,-206.69 6625.26,-197.75 6615.24,-201.19 6619.58,-206.69"/>
<text xml:space="preserve" text-anchor="middle" x="3839.35" y="-257.29" font-family="Times New Roman,serif" font-size="14.00">0x01,0x02,0x03,0x04,0x05,0x06,0x07,0x08,0x0E,0x0F,0x10,0x11,0x12,0x13,0x14,0x15,0x16,0x17,0x18,0x19,0x1A,0x1B,0x1C,0x1D,0x1E,0x1F,&#39;&quot;&#39;,&#39;#&#39;,&#39;$&#39;,&#39;%&#39;,&#39;&amp;&#39;,&#39;&#39;&#39;,&#39;(&#39;,&#39;)&#39;,&#39;*&#39;,&#39;+&#39;,&#39;,&#39;,&#39;&#45;&#39;,&#39;.&#39;,&#39;/&#39;,&#39;;&#39;,&#39;?&#39;,&#39;@&#39;,&#39;[&#39;,&#39;&#39;,&#39;]&#39;,&#39;^&#39;,&#39;`&#39;,&#39;{&#39;,&#39;|&#39;,&#39;}&#39;,&#39;~&#39;,0x7F,0x80,0x81,0x82,0x83,0x84,0x85,0x86,0x87,0x88,0x89,0x8A,0x8B,0x8C,0x8D,0x8E,0x8F,0x90,0x91,0x92,0x93,0x94,0x95,0x96,0x97,0x98,0x99,0x9A,0x9B,0x9C,0x9D,0x9E,0x9F,0xA0,0xA1,0xA2,0xA3,0xA4,0xA5,0xA6,0xA7,0xA8,0xA9,0xAA,0xAB,0xAC,0xAD,0xAE,0xAF,0xB0,0xB1,0xB2,0xB3,0xB4,0xB5,0xB6,0xB7,0xB8,0xB9,0xBA,0xBB,0xBC,0xBD,0xBE,0xBF,0xC0,0xC1,0xC2,0xC3,0xC4,0xC5,0xC6,0xC7,0xC8,0xC9,0xCA,0xCB,0xCC,0xCD,0xCE,0xCF,0xD0,0xD1,0xD2,0xD3,0xD4,0xD5,0xD6,0xD7,0xD8,0xD9,0xDA,0xDB,0xDC,0xDD,0xDE,0xDF,0xE0,0xE1,0xE2,0xE3,0xE4,0xE5,0xE6,0xE7,0xE8,0xE9,0xEA,0xEB,0xEC,0xED,0xEE,0xEF,0xF0,0xF1,0xF2,0xF3,0xF4,0xF5,0xF6,0xF7,0xF8,0xF9,0xFA,0xFB,0xFC,0xFD,0xFE,0xFF</text>
</g>
<!-- q2 -->
<g id="node6" class="node">
<title>q2</title>
<ellipse fill="none" stroke="black" cx="3839.35" cy="-206" rx="20.13" ry="20.13"/>
<text xml:space="preserve" text-anchor="middle" x="3839.35" y="-200.95" font-family="Times New Roman,serif" font-size="14.00">q2</text>
</g>
<!-- q0&#45;&gt;q2 -->
<g id="edge9" class="edge">
<title>q0&#45;&gt;q2</title>
<path fill="none" stroke="black" d="M94.94,-206C410.73,-206 3465.56,-206 3807.31,-206"/>
<polygon fill="black" stroke="black" points="3807.21,-209.5 3817.21,-206 3807.21,-202.5 3807.21,-209.5"/>
<text xml:space="preserve" text-anchor="middle" x="606.48" y="-209.2" font-family="Times New Roman,serif" font-size="14.00">&#39;=&#39;</text>
</g>
<!-- q3 -->
<g id="node7" class="node">
<title>q3</title>
<ellipse fill="none" stroke="black" cx="3839.35" cy="-148" rx="20.13" ry="20.13"/>
<text xml:space="preserve" text-anchor="middle" x="3839.35" y="-142.95" font-family="Times New Roman,serif" font-size="14.00">q3</text>
</g>
<!-- q0&#45;&gt;q3 -->
<g id="edge3" class="edge">
<title>q0&#45;&gt;q3</title>
<path fill="none" stroke="black" d="M88.55,-194.52C95.87,-190.9 104.38,-187.36 112.6,-185.5 493.5,-99.11 3471.77,-142.35 3807.58,-147.52"/>
<polygon fill="black" stroke="black" points="3807.24,-151.01 3817.29,-147.67 3807.35,-144.01 3807.24,-151.01"/>
<text xml:space="preserve" text-anchor="middle" x="606.48" y="-188.7" font-family="Times New Roman,serif" font-size="14.00">&#39;!&#39;</text>
</g>
<!-- q4 -->
<g id="node8" class="node">
<title>q4</title>
<ellipse fill="none" stroke="black" cx="3839.35" cy="-90" rx="20.13" ry="20.13"/>
<text xml:space="preserve" text-anchor="middle" x="3839.35" y="-84.95" font-family="Times New Roman,serif" font-size="14.00">q4</text>
</g>
<!-- q0&#45;&gt;q4 -->
<g id="edge8" class="edge">
<title>q0&#45;&gt;q4</title>
<path fill="none" stroke="black" d="M71.72,-187.78C76.45,-166.48 87.67,-132.15 112.6,-116.5 195.51,-64.46 3454.52,-87.15 3807.45,-89.77"/>
<polygon fill="black" stroke="black" points="3807.23,-93.27 3817.26,-89.84 3807.28,-86.27 3807.23,-93.27"/>
<text xml:space="preserve" text-anchor="middle" x="606.48" y="-119.7" font-family="Times New Roman,serif" font-size="14.00">&#39;&lt;&#39;</text>
</g>
<!-- q5 -->
<g id="node9" class="node">
<title>q5</title>
<ellipse fill="none" stroke="black" cx="3839.35" cy="-32" rx="20.13" ry="20.13"/>
<text xml:space="preserve" text-anchor="middle" x="3839.35" y="-26.95" font-family="Times New Roman,serif" font-size="14.00">q5</text>
</g>
<!-- q0&#45;&gt;q5 -->
<g id="edge14" class="edge">
<title>q0&#45;&gt;q5</title>
<path fill="none" stroke="black" d="M68.09,-187.59C68.37,-156.48 74,-94.13 112.6,-65.5 269.73,51.04 3457.74,-22.78 3807.32,-31.24"/>
<polygon fill="black" stroke="black" points="3807.16,-34.74 3817.24,-31.48 3807.33,-27.74 3807.16,-34.74"/>
<text xml:space="preserve" text-anchor="middle" x="606.48" y="-68.7" font-family="Times New Roman,serif" font-size="14.00">&#39;&gt;&#39;</text>
</g>
<!-- q1&#45;&gt;q7 -->
<g id="edge10" class="edge">
<title>q1&#45;&gt;q7</title>
<path fill="none" stroke="black" d="M3863.66,-423.26C4115.38,-436.72 6325.12,-549.86 6560.35,-389 6617.51,-349.91 6635.73,-264.76 6641.53,-216.4"/>
<polygon fill="black" stroke="black" points="6644.98,-217.06 6642.57,-206.74 6638.02,-216.31 6644.98,-217.06"/>
<text xml:space="preserve" text-anchor="middle" x="6590.73" y="-376.99" font-family="Times New Roman,serif" font-size="14.00">&#39;=&#39;</text>
</g>
<!-- q6&#45;&gt;q6 -->
<g id="edge5" class="edge">
<title>q6&#45;&gt;q6</title>
<path fill="none" stroke="black" d="M3814.96,-321.51C3151.6,-335.71 3159.73,-363.13 3839.35,-363.13 4515.15,-363.13 4526.98,-336.02 3874.85,-321.75"/>
<polygon fill="black" stroke="black" points="3875.33,-318.26 3865.25,-321.54 3875.18,-325.26 3875.33,-318.26"/>
<text xml:space="preserve" text-anchor="middle" x="3839.35" y="-366.33" font-family="Times New Roman,serif" font-size="14.00">&#39;0&#39;,&#39;1&#39;,&#39;2&#39;,&#39;3&#39;,&#39;4&#39;,&#39;5&#39;,&#39;6&#39;,&#39;7&#39;,&#39;8&#39;,&#39;9&#39;,&#39;A&#39;,&#39;B&#39;,&#39;C&#39;,&#39;D&#39;,&#39;E&#39;,&#39;F&#39;,&#39;G&#39;,&#39;H&#39;,&#39;I&#39;,&#39;J&#39;,&#39;K&#39;,&#39;L&#39;,&#39;M&#39;,&#39;N&#39;,&#39;O&#39;,&#39;P&#39;,&#39;Q&#39;,&#39;R&#39;,&#39;S&#39;,&#39;T&#39;,&#39;U&#39;,&#39;V&#39;,&#39;W&#39;,&#39;X&#39;,&#39;Y&#39;,&#39;Z&#39;,&#39;_&#39;,&#39;a&#39;,&#39;b&#39;,&#39;c&#39;,&#39;d&#39;,&#39;e&#39;,&#39;f&#39;,&#39;g&#39;,&#39;h&#39;,&#39;i&#39;,&#39;j&#39;,&#39;k&#39;,&#39;l&#39;,&#39;m&#39;,&#39;n&#39;,&#39;o&#39;,&#39;p&#39;,&#39;q&#39;,&#39;r&#39;,&#39;s&#39;,&#39;t&#39;,&#39;u&#39;,&#39;v&#39;,&#39;w&#39;,&#39;x&#39;,&#39;y&#39;,&#39;z&#39;</text>
</g>
<!-- q2&#45;&gt;q7 -->
<g id="edge7" class="edge">
<title>q2&#45;&gt;q7</title>
<path fill="none" stroke="black" d="M3859.75,-205.83C4090.37,-203.77 6304.69,-184.03 6609.51,-181.31"/>
<polygon fill="black" stroke="black" points="6609.21,-184.81 6619.18,-181.22 6609.15,-177.81 6609.21,-184.81"/>
<text xml:space="preserve" text-anchor="middle" x="6590.73" y="-184.65" font-family="Times New Roman,serif" font-size="14.00">&#39;:&#39;,&#39;=&#39;</text>
</g>
<!-- q3&#45;&gt;q7 -->
<g id="edge11" class="edge">
<title>q3&#45;&gt;q7</title>
<path fill="none" stroke="black" d="M3859.87,-147.55C4091.92,-142.24 6320.05,-93.2 6603.1,-160.5 6606.67,-161.35 6610.29,-162.55 6613.81,-163.96"/>
<polygon fill="black" stroke="black" points="6612.09,-167.02 6622.63,-168 6615,-160.65 6612.09,-167.02"/>
<text xml:space="preserve" text-anchor="middle" x="6590.73" y="-163.7" font-family="Times New Roman,serif" font-size="14.00">&#39;=&#39;</text>
</g>
<!-- q4&#45;&gt;q7 -->
<g id="edge12" class="edge">
<title>q4&#45;&gt;q7</title>
<path fill="none" stroke="black" d="M3859.9,-89.78C4090.01,-87.29 6279.17,-65.07 6560.35,-119 6580.35,-122.84 6586.31,-123.97 6603.1,-135.5 6610.22,-140.39 6616.96,-146.75 6622.84,-153.16"/>
<polygon fill="black" stroke="black" points="6620.12,-155.36 6629.3,-160.65 6625.42,-150.79 6620.12,-155.36"/>
<text xml:space="preserve" text-anchor="middle" x="6590.73" y="-138.7" font-family="Times New Roman,serif" font-size="14.00">&#39;=&#39;</text>
</g>
<!-- q5&#45;&gt;q7 -->
<g id="edge13" class="edge">
<title>q5&#45;&gt;q7</title>
<path fill="none" stroke="black" d="M3859.68,-31.34C4089.47,-23.55 6295.48,48.07 6560.35,-61 6597.09,-76.13 6620.23,-117.52 6632.69,-147.46"/>
<polygon fill="black" stroke="black" points="6629.33,-148.47 6636.25,-156.5 6635.84,-145.91 6629.33,-148.47"/>
<text xml:space="preserve" text-anchor="middle" x="6590.73" y="-97.94" font-family="Times New Roman,serif" font-size="14.00">&#39;=&#39;</text>
</g>
</g>
</svg>
